# xmcd CD database file
#
# Track frame offsets:
#	150
#	13203
#	24933
#	42165
#	58560
#	71535
#	87020
#	100038
#	117763
#	133318
#	145080
#	158945
#	175825
#	192723
#	214840
#	227403
#	241013
#	254663
#	271153
#	284163
#	295060
#	307238
#	321048
#
# Disc length: 4447 seconds
#
# Revision: 0
# Processed by: cddbd v1.4PL0 Copyright (c) Steve Scherf et al.
# Submitted via: Feurio! 1.65 - http://www.feurio.com
#
DISCID=52115d17
DTITLE=Dana Gillespie - Blues It Up
DYEAR=1900
DGENRE=Blues
TTITLE0=A Lotta What You Got
TTITLE1=My Man Stands Out
TTITLE2=Fat Sam From Birmingham
TTITLE3=Sweet Meat
TTITLE4=Ugly Papa
TTITLE5=Sweets
TTITLE6=King Size Papa
TTITLE7=One Hour Mama
TTITLE8=Three Hundred Pounds Of Joy
TTITLE9=Don't You Make Me High
TTITLE10=Big Ten Inch Record
TTITLE11=Below The Belt
TTITLE12=Long Lean Baby
TTITLE13=Tongue In Cheek
TTITLE14=Meat Balls
TTITLE15=Wasn't that Good
TTITLE16=Joe's Joint
TTITLE17=Organ Grinder
TTITLE18=Come On (If You're Coming)
TTITLE19=Nosey Joe
TTITLE20=It Ain't The Meat
TTITLE21=Sixty Minute man
TTITLE22=Snatch And Grab It
EXTD=ARD ACE Records CDCHD 950
EXTT0=
EXTT1=
EXTT2=
EXTT3=
EXTT4=
EXTT5=
EXTT6=
EXTT7=
EXTT8=
EXTT9=
EXTT10=
EXTT11=
EXTT12=
EXTT13=
EXTT14=
EXTT15=
EXTT16=
EXTT17=
EXTT18=
EXTT19=
EXTT20=
EXTT21=
EXTT22=
PLAYORDER=
